<mxfile host="Electron" modified="2024-11-13T00:05:58.854Z" agent="Mozilla/5.0 (Macintosh; Intel Mac OS X 10_15_7) AppleWebKit/537.36 (KHTML, like Gecko) draw.io/24.5.1 Chrome/124.0.6367.207 Electron/30.0.6 Safari/537.36" version="24.5.1" etag="4QV-mmt4XTxjJfs1e1FD" type="device">
  <diagram id="L6PCsKOrKIJcm6DnBDM5" name="Page-1">
    <mxGraphModel dx="3975" dy="1145" grid="1" gridSize="10" guides="1" tooltips="1" connect="1" arrows="1" fold="1" page="0" pageScale="1" pageWidth="850" pageHeight="1100" math="0" shadow="0">
      <root>
        <mxCell id="0" />
        <mxCell id="1" parent="0" />
        <mxCell id="6_IEjrvmjjVui2o0k0rT-67" value="" style="whiteSpace=wrap;html=1;" vertex="1" parent="1">
          <mxGeometry x="-1380" y="-80" width="445" height="460" as="geometry" />
        </mxCell>
        <mxCell id="6_IEjrvmjjVui2o0k0rT-33" value="" style="rounded=0;whiteSpace=wrap;html=1;" vertex="1" parent="1">
          <mxGeometry x="-800" y="380" width="590" height="393" as="geometry" />
        </mxCell>
        <mxCell id="6_IEjrvmjjVui2o0k0rT-2" value="K3S" style="rounded=0;whiteSpace=wrap;html=1;" vertex="1" parent="1">
          <mxGeometry x="-740" y="210" width="120" height="60" as="geometry" />
        </mxCell>
        <mxCell id="6_IEjrvmjjVui2o0k0rT-3" value="Cloudflare" style="rounded=0;whiteSpace=wrap;html=1;" vertex="1" parent="1">
          <mxGeometry x="-70" y="90" width="120" height="60" as="geometry" />
        </mxCell>
        <mxCell id="6_IEjrvmjjVui2o0k0rT-4" value="Ingress" style="rounded=0;whiteSpace=wrap;html=1;" vertex="1" parent="1">
          <mxGeometry x="-780" y="450" width="120" height="60" as="geometry" />
        </mxCell>
        <mxCell id="6_IEjrvmjjVui2o0k0rT-5" value="" style="rounded=0;whiteSpace=wrap;html=1;" vertex="1" parent="1">
          <mxGeometry x="-800" y="-30" width="590" height="393" as="geometry" />
        </mxCell>
        <mxCell id="6_IEjrvmjjVui2o0k0rT-6" value="Service" style="rounded=0;whiteSpace=wrap;html=1;" vertex="1" parent="1">
          <mxGeometry x="-650" y="450" width="120" height="60" as="geometry" />
        </mxCell>
        <mxCell id="6_IEjrvmjjVui2o0k0rT-7" value="Rancher" style="text;html=1;align=center;verticalAlign=middle;resizable=0;points=[];autosize=1;strokeColor=none;fillColor=none;" vertex="1" parent="1">
          <mxGeometry x="-770" y="-10" width="70" height="30" as="geometry" />
        </mxCell>
        <mxCell id="6_IEjrvmjjVui2o0k0rT-8" value="K3S" style="rounded=0;whiteSpace=wrap;html=1;" vertex="1" parent="1">
          <mxGeometry x="-730" y="220" width="120" height="60" as="geometry" />
        </mxCell>
        <mxCell id="6_IEjrvmjjVui2o0k0rT-9" value="K3S&lt;div&gt;nó 1&lt;/div&gt;" style="rounded=0;whiteSpace=wrap;html=1;" vertex="1" parent="1">
          <mxGeometry x="-720" y="230" width="120" height="60" as="geometry" />
        </mxCell>
        <mxCell id="6_IEjrvmjjVui2o0k0rT-11" value="Cluster" style="text;html=1;align=center;verticalAlign=middle;resizable=0;points=[];autosize=1;strokeColor=none;fillColor=none;" vertex="1" parent="1">
          <mxGeometry x="-710" y="170" width="60" height="30" as="geometry" />
        </mxCell>
        <mxCell id="6_IEjrvmjjVui2o0k0rT-12" value="K3S" style="rounded=0;whiteSpace=wrap;html=1;" vertex="1" parent="1">
          <mxGeometry x="-580" y="210" width="120" height="60" as="geometry" />
        </mxCell>
        <mxCell id="6_IEjrvmjjVui2o0k0rT-13" value="K3S" style="rounded=0;whiteSpace=wrap;html=1;" vertex="1" parent="1">
          <mxGeometry x="-570" y="220" width="120" height="60" as="geometry" />
        </mxCell>
        <mxCell id="6_IEjrvmjjVui2o0k0rT-14" value="K3S&lt;div&gt;nó 1&lt;/div&gt;" style="rounded=0;whiteSpace=wrap;html=1;" vertex="1" parent="1">
          <mxGeometry x="-560" y="230" width="120" height="60" as="geometry" />
        </mxCell>
        <mxCell id="6_IEjrvmjjVui2o0k0rT-15" value="Cluster" style="text;html=1;align=center;verticalAlign=middle;resizable=0;points=[];autosize=1;strokeColor=none;fillColor=none;" vertex="1" parent="1">
          <mxGeometry x="-550" y="170" width="60" height="30" as="geometry" />
        </mxCell>
        <mxCell id="6_IEjrvmjjVui2o0k0rT-16" value="K3S" style="rounded=0;whiteSpace=wrap;html=1;" vertex="1" parent="1">
          <mxGeometry x="-430" y="210" width="120" height="60" as="geometry" />
        </mxCell>
        <mxCell id="6_IEjrvmjjVui2o0k0rT-17" value="K3S" style="rounded=0;whiteSpace=wrap;html=1;" vertex="1" parent="1">
          <mxGeometry x="-420" y="220" width="120" height="60" as="geometry" />
        </mxCell>
        <mxCell id="6_IEjrvmjjVui2o0k0rT-18" value="K3S&lt;div&gt;nó 1&lt;/div&gt;" style="rounded=0;whiteSpace=wrap;html=1;" vertex="1" parent="1">
          <mxGeometry x="-410" y="230" width="120" height="60" as="geometry" />
        </mxCell>
        <mxCell id="6_IEjrvmjjVui2o0k0rT-19" value="Cluster" style="text;html=1;align=center;verticalAlign=middle;resizable=0;points=[];autosize=1;strokeColor=none;fillColor=none;" vertex="1" parent="1">
          <mxGeometry x="-400" y="170" width="60" height="30" as="geometry" />
        </mxCell>
        <mxCell id="6_IEjrvmjjVui2o0k0rT-20" value="K3S" style="rounded=0;whiteSpace=wrap;html=1;" vertex="1" parent="1">
          <mxGeometry x="-430" y="80" width="120" height="60" as="geometry" />
        </mxCell>
        <mxCell id="6_IEjrvmjjVui2o0k0rT-21" value="K3S" style="rounded=0;whiteSpace=wrap;html=1;" vertex="1" parent="1">
          <mxGeometry x="-420" y="90" width="120" height="60" as="geometry" />
        </mxCell>
        <mxCell id="6_IEjrvmjjVui2o0k0rT-22" value="K3S&lt;div&gt;nó 1&lt;/div&gt;" style="rounded=0;whiteSpace=wrap;html=1;" vertex="1" parent="1">
          <mxGeometry x="-410" y="100" width="120" height="60" as="geometry" />
        </mxCell>
        <mxCell id="6_IEjrvmjjVui2o0k0rT-23" value="Cluster" style="text;html=1;align=center;verticalAlign=middle;resizable=0;points=[];autosize=1;strokeColor=none;fillColor=none;" vertex="1" parent="1">
          <mxGeometry x="-400" y="40" width="60" height="30" as="geometry" />
        </mxCell>
        <mxCell id="6_IEjrvmjjVui2o0k0rT-24" value="K3S" style="rounded=0;whiteSpace=wrap;html=1;" vertex="1" parent="1">
          <mxGeometry x="-590" y="80" width="120" height="60" as="geometry" />
        </mxCell>
        <mxCell id="6_IEjrvmjjVui2o0k0rT-25" value="K3S" style="rounded=0;whiteSpace=wrap;html=1;" vertex="1" parent="1">
          <mxGeometry x="-580" y="90" width="120" height="60" as="geometry" />
        </mxCell>
        <mxCell id="6_IEjrvmjjVui2o0k0rT-26" value="K3S&lt;div&gt;nó 1&lt;/div&gt;" style="rounded=0;whiteSpace=wrap;html=1;" vertex="1" parent="1">
          <mxGeometry x="-570" y="100" width="120" height="60" as="geometry" />
        </mxCell>
        <mxCell id="6_IEjrvmjjVui2o0k0rT-27" value="Cluster" style="text;html=1;align=center;verticalAlign=middle;resizable=0;points=[];autosize=1;strokeColor=none;fillColor=none;" vertex="1" parent="1">
          <mxGeometry x="-560" y="40" width="60" height="30" as="geometry" />
        </mxCell>
        <mxCell id="6_IEjrvmjjVui2o0k0rT-28" value="K3S" style="rounded=0;whiteSpace=wrap;html=1;" vertex="1" parent="1">
          <mxGeometry x="-1130" y="10" width="120" height="60" as="geometry" />
        </mxCell>
        <mxCell id="6_IEjrvmjjVui2o0k0rT-29" value="K3S" style="rounded=0;whiteSpace=wrap;html=1;" vertex="1" parent="1">
          <mxGeometry x="-1140" y="-10" width="120" height="60" as="geometry" />
        </mxCell>
        <mxCell id="6_IEjrvmjjVui2o0k0rT-31" value="Cluster 1" style="text;html=1;align=center;verticalAlign=middle;resizable=0;points=[];autosize=1;strokeColor=none;fillColor=none;" vertex="1" parent="1">
          <mxGeometry x="-1125" y="-50" width="70" height="30" as="geometry" />
        </mxCell>
        <mxCell id="6_IEjrvmjjVui2o0k0rT-34" value="Cluster RPI" style="text;html=1;align=center;verticalAlign=middle;resizable=0;points=[];autosize=1;strokeColor=none;fillColor=none;" vertex="1" parent="1">
          <mxGeometry x="-790" y="400" width="80" height="30" as="geometry" />
        </mxCell>
        <mxCell id="6_IEjrvmjjVui2o0k0rT-36" value="Pods" style="rounded=0;whiteSpace=wrap;html=1;" vertex="1" parent="1">
          <mxGeometry x="-520" y="450" width="120" height="60" as="geometry" />
        </mxCell>
        <mxCell id="6_IEjrvmjjVui2o0k0rT-51" style="edgeStyle=orthogonalEdgeStyle;rounded=0;orthogonalLoop=1;jettySize=auto;html=1;" edge="1" parent="1" source="6_IEjrvmjjVui2o0k0rT-37" target="6_IEjrvmjjVui2o0k0rT-48">
          <mxGeometry relative="1" as="geometry" />
        </mxCell>
        <mxCell id="6_IEjrvmjjVui2o0k0rT-37" value="1 nós master" style="rounded=0;whiteSpace=wrap;html=1;" vertex="1" parent="1">
          <mxGeometry x="-160" y="480" width="120" height="60" as="geometry" />
        </mxCell>
        <mxCell id="6_IEjrvmjjVui2o0k0rT-38" value="Service" style="rounded=0;whiteSpace=wrap;html=1;" vertex="1" parent="1">
          <mxGeometry x="300" y="546.5" width="120" height="60" as="geometry" />
        </mxCell>
        <mxCell id="6_IEjrvmjjVui2o0k0rT-39" value="Pod" style="rounded=0;whiteSpace=wrap;html=1;" vertex="1" parent="1">
          <mxGeometry x="440" y="546.5" width="120" height="60" as="geometry" />
        </mxCell>
        <mxCell id="6_IEjrvmjjVui2o0k0rT-40" value="Container" style="rounded=0;whiteSpace=wrap;html=1;" vertex="1" parent="1">
          <mxGeometry x="570" y="546.5" width="120" height="60" as="geometry" />
        </mxCell>
        <mxCell id="6_IEjrvmjjVui2o0k0rT-42" value="*.phantombyte.uk" style="whiteSpace=wrap;html=1;" vertex="1" parent="1">
          <mxGeometry x="-70" y="160" width="120" height="60" as="geometry" />
        </mxCell>
        <mxCell id="6_IEjrvmjjVui2o0k0rT-43" value="xpto1,&lt;div&gt;xpto2,&lt;/div&gt;&lt;div&gt;xpto3&lt;/div&gt;" style="whiteSpace=wrap;html=1;" vertex="1" parent="1">
          <mxGeometry x="-70" y="230" width="120" height="60" as="geometry" />
        </mxCell>
        <mxCell id="6_IEjrvmjjVui2o0k0rT-46" value="global load balancer" style="whiteSpace=wrap;html=1;" vertex="1" parent="1">
          <mxGeometry x="-70" y="303" width="120" height="60" as="geometry" />
        </mxCell>
        <mxCell id="6_IEjrvmjjVui2o0k0rT-48" value="X Workers" style="rounded=0;whiteSpace=wrap;html=1;" vertex="1" parent="1">
          <mxGeometry x="-160" y="560" width="120" height="60" as="geometry" />
        </mxCell>
        <mxCell id="6_IEjrvmjjVui2o0k0rT-50" style="edgeStyle=orthogonalEdgeStyle;rounded=0;orthogonalLoop=1;jettySize=auto;html=1;entryX=1;entryY=0.5;entryDx=0;entryDy=0;" edge="1" parent="1" source="6_IEjrvmjjVui2o0k0rT-49" target="6_IEjrvmjjVui2o0k0rT-37">
          <mxGeometry relative="1" as="geometry" />
        </mxCell>
        <mxCell id="6_IEjrvmjjVui2o0k0rT-49" value="Tunnel" style="whiteSpace=wrap;html=1;" vertex="1" parent="1">
          <mxGeometry y="480" width="120" height="60" as="geometry" />
        </mxCell>
        <mxCell id="6_IEjrvmjjVui2o0k0rT-52" value="K3S" style="rounded=0;whiteSpace=wrap;html=1;" vertex="1" parent="1">
          <mxGeometry x="-1300" y="10" width="120" height="60" as="geometry" />
        </mxCell>
        <mxCell id="6_IEjrvmjjVui2o0k0rT-53" value="K3S" style="rounded=0;whiteSpace=wrap;html=1;" vertex="1" parent="1">
          <mxGeometry x="-1320" y="-10" width="120" height="60" as="geometry" />
        </mxCell>
        <mxCell id="6_IEjrvmjjVui2o0k0rT-54" value="Cluster 1" style="text;html=1;align=center;verticalAlign=middle;resizable=0;points=[];autosize=1;strokeColor=none;fillColor=none;" vertex="1" parent="1">
          <mxGeometry x="-1295" y="-50" width="70" height="30" as="geometry" />
        </mxCell>
        <mxCell id="6_IEjrvmjjVui2o0k0rT-55" value="EC2" style="whiteSpace=wrap;html=1;" vertex="1" parent="1">
          <mxGeometry x="-1275" y="90" width="70" height="30" as="geometry" />
        </mxCell>
        <mxCell id="6_IEjrvmjjVui2o0k0rT-57" value="RPI" style="whiteSpace=wrap;html=1;" vertex="1" parent="1">
          <mxGeometry x="-1110" y="90" width="70" height="30" as="geometry" />
        </mxCell>
        <mxCell id="6_IEjrvmjjVui2o0k0rT-68" style="edgeStyle=orthogonalEdgeStyle;rounded=0;orthogonalLoop=1;jettySize=auto;html=1;entryX=0;entryY=0.5;entryDx=0;entryDy=0;" edge="1" parent="1" source="6_IEjrvmjjVui2o0k0rT-58" target="6_IEjrvmjjVui2o0k0rT-67">
          <mxGeometry relative="1" as="geometry" />
        </mxCell>
        <mxCell id="6_IEjrvmjjVui2o0k0rT-58" value="Rancher" style="whiteSpace=wrap;html=1;" vertex="1" parent="1">
          <mxGeometry x="-1770" y="120" width="120" height="60" as="geometry" />
        </mxCell>
        <mxCell id="6_IEjrvmjjVui2o0k0rT-59" value="K3S" style="rounded=0;whiteSpace=wrap;html=1;" vertex="1" parent="1">
          <mxGeometry x="-1130" y="220" width="120" height="60" as="geometry" />
        </mxCell>
        <mxCell id="6_IEjrvmjjVui2o0k0rT-60" value="K3S" style="rounded=0;whiteSpace=wrap;html=1;" vertex="1" parent="1">
          <mxGeometry x="-1140" y="200" width="120" height="60" as="geometry" />
        </mxCell>
        <mxCell id="6_IEjrvmjjVui2o0k0rT-61" value="Cluster 2" style="text;html=1;align=center;verticalAlign=middle;resizable=0;points=[];autosize=1;strokeColor=none;fillColor=none;" vertex="1" parent="1">
          <mxGeometry x="-1125" y="160" width="70" height="30" as="geometry" />
        </mxCell>
        <mxCell id="6_IEjrvmjjVui2o0k0rT-62" value="K3S" style="rounded=0;whiteSpace=wrap;html=1;" vertex="1" parent="1">
          <mxGeometry x="-1300" y="220" width="120" height="60" as="geometry" />
        </mxCell>
        <mxCell id="6_IEjrvmjjVui2o0k0rT-63" value="K3S" style="rounded=0;whiteSpace=wrap;html=1;" vertex="1" parent="1">
          <mxGeometry x="-1320" y="200" width="120" height="60" as="geometry" />
        </mxCell>
        <mxCell id="6_IEjrvmjjVui2o0k0rT-64" value="Cluster 2" style="text;html=1;align=center;verticalAlign=middle;resizable=0;points=[];autosize=1;strokeColor=none;fillColor=none;" vertex="1" parent="1">
          <mxGeometry x="-1295" y="160" width="70" height="30" as="geometry" />
        </mxCell>
        <mxCell id="6_IEjrvmjjVui2o0k0rT-65" value="GKE" style="whiteSpace=wrap;html=1;" vertex="1" parent="1">
          <mxGeometry x="-1275" y="300" width="70" height="30" as="geometry" />
        </mxCell>
        <mxCell id="6_IEjrvmjjVui2o0k0rT-66" value="DigitalOcean" style="whiteSpace=wrap;html=1;" vertex="1" parent="1">
          <mxGeometry x="-1110" y="300" width="70" height="30" as="geometry" />
        </mxCell>
        <mxCell id="6_IEjrvmjjVui2o0k0rT-69" value="configuração rede,&lt;div&gt;autenticação, permissão,&lt;/div&gt;&lt;div&gt;gestão dos kubeconfigs&lt;/div&gt;" style="text;html=1;align=center;verticalAlign=middle;resizable=0;points=[];autosize=1;strokeColor=none;fillColor=none;" vertex="1" parent="1">
          <mxGeometry x="-1800" y="40" width="160" height="60" as="geometry" />
        </mxCell>
        <mxCell id="6_IEjrvmjjVui2o0k0rT-70" value="Rancher" style="whiteSpace=wrap;html=1;" vertex="1" parent="1">
          <mxGeometry x="-1760" y="130" width="120" height="60" as="geometry" />
        </mxCell>
        <mxCell id="6_IEjrvmjjVui2o0k0rT-71" value="Rancher" style="whiteSpace=wrap;html=1;" vertex="1" parent="1">
          <mxGeometry x="-1750" y="140" width="120" height="60" as="geometry" />
        </mxCell>
        <mxCell id="6_IEjrvmjjVui2o0k0rT-72" value="Rancher" style="whiteSpace=wrap;html=1;" vertex="1" parent="1">
          <mxGeometry x="-1740" y="150" width="120" height="60" as="geometry" />
        </mxCell>
        <mxCell id="6_IEjrvmjjVui2o0k0rT-73" value="Rancher" style="whiteSpace=wrap;html=1;" vertex="1" parent="1">
          <mxGeometry x="-1730" y="160" width="120" height="60" as="geometry" />
        </mxCell>
      </root>
    </mxGraphModel>
  </diagram>
</mxfile>
